<svg width="115" height="70" viewBox="0 0 115 70" fill="none" xmlns="http://www.w3.org/2000/svg">
<mask id="path-1-inside-1_499_364" fill="white">
<path d="M115 10.5077C115 12.4089 114.484 14.2746 113.507 15.9058L86.9397 60.2747C83.3273 66.3074 76.8123 70 69.7807 70H20C8.95431 70 0 61.0457 0 50V20C0 8.9543 8.95431 0 20 0H104.492C110.296 0 115 4.70444 115 10.5077Z"/>
</mask>
<path d="M115 10.5077C115 12.4089 114.484 14.2746 113.507 15.9058L86.9397 60.2747C83.3273 66.3074 76.8123 70 69.7807 70H20C8.95431 70 0 61.0457 0 50V20C0 8.9543 8.95431 0 20 0H104.492C110.296 0 115 4.70444 115 10.5077Z" fill="url(#paint0_radial_499_364)" fill-opacity="0.2"/>
<path d="M86.9397 60.2747L87.7976 60.7884L86.9397 60.2747ZM113.507 15.9058L112.649 15.3921L113.507 15.9058ZM113.507 15.9058L112.649 15.3921L86.0817 59.7609L86.9397 60.2747L87.7976 60.7884L114.365 16.4195L113.507 15.9058ZM69.7807 70V69H20V70V71H69.7807V70ZM0 50H1V20H0H-1V50H0ZM20 0V1H104.492V0V-1H20V0ZM104.492 0V1C109.743 1 114 5.25672 114 10.5077H115H116C116 4.15215 110.848 -1 104.492 -1V0ZM0 20H1C1 9.50659 9.50659 1 20 1V0V-1C8.40202 -1 -1 8.40202 -1 20H0ZM20 70V69C9.50659 69 1 60.4934 1 50H0H-1C-1 61.598 8.40202 71 20 71V70ZM86.9397 60.2747L86.0817 59.7609C82.65 65.4921 76.4607 69 69.7807 69V70V71C77.1638 71 84.0046 67.1228 87.7976 60.7884L86.9397 60.2747ZM113.507 15.9058L114.365 16.4195C115.435 14.6331 116 12.5899 116 10.5077H115H114C114 12.228 113.533 13.9161 112.649 15.3921L113.507 15.9058Z" fill="url(#paint1_radial_499_364)" fill-opacity="0.25" mask="url(#path-1-inside-1_499_364)"/>
<path d="M86.9397 60.2747L87.7976 60.7884L86.9397 60.2747ZM113.507 15.9058L112.649 15.3921L113.507 15.9058ZM113.507 15.9058L112.649 15.3921L86.0817 59.7609L86.9397 60.2747L87.7976 60.7884L114.365 16.4195L113.507 15.9058ZM69.7807 70V69H20V70V71H69.7807V70ZM0 50H1V20H0H-1V50H0ZM20 0V1H104.492V0V-1H20V0ZM104.492 0V1C109.743 1 114 5.25672 114 10.5077H115H116C116 4.15215 110.848 -1 104.492 -1V0ZM0 20H1C1 9.50659 9.50659 1 20 1V0V-1C8.40202 -1 -1 8.40202 -1 20H0ZM20 70V69C9.50659 69 1 60.4934 1 50H0H-1C-1 61.598 8.40202 71 20 71V70ZM86.9397 60.2747L86.0817 59.7609C82.65 65.4921 76.4607 69 69.7807 69V70V71C77.1638 71 84.0046 67.1228 87.7976 60.7884L86.9397 60.2747ZM113.507 15.9058L114.365 16.4195C115.435 14.6331 116 12.5899 116 10.5077H115H114C114 12.228 113.533 13.9161 112.649 15.3921L113.507 15.9058Z" fill="url(#paint2_radial_499_364)" fill-opacity="0.25" mask="url(#path-1-inside-1_499_364)"/>
<path d="M86.9397 60.2747L87.7976 60.7884L86.9397 60.2747ZM113.507 15.9058L112.649 15.3921L113.507 15.9058ZM113.507 15.9058L112.649 15.3921L86.0817 59.7609L86.9397 60.2747L87.7976 60.7884L114.365 16.4195L113.507 15.9058ZM69.7807 70V69H20V70V71H69.7807V70ZM0 50H1V20H0H-1V50H0ZM20 0V1H104.492V0V-1H20V0ZM104.492 0V1C109.743 1 114 5.25672 114 10.5077H115H116C116 4.15215 110.848 -1 104.492 -1V0ZM0 20H1C1 9.50659 9.50659 1 20 1V0V-1C8.40202 -1 -1 8.40202 -1 20H0ZM20 70V69C9.50659 69 1 60.4934 1 50H0H-1C-1 61.598 8.40202 71 20 71V70ZM86.9397 60.2747L86.0817 59.7609C82.65 65.4921 76.4607 69 69.7807 69V70V71C77.1638 71 84.0046 67.1228 87.7976 60.7884L86.9397 60.2747ZM113.507 15.9058L114.365 16.4195C115.435 14.6331 116 12.5899 116 10.5077H115H114C114 12.228 113.533 13.9161 112.649 15.3921L113.507 15.9058Z" fill="url(#paint3_linear_499_364)" fill-opacity="0.25" mask="url(#path-1-inside-1_499_364)"/>
<defs>
<radialGradient id="paint0_radial_499_364" cx="0" cy="0" r="1" gradientTransform="matrix(112.201 66.124 -108.759 147.527 1.0344 2.08264)" gradientUnits="userSpaceOnUse">
<stop stop-color="white" stop-opacity="0.4"/>
<stop offset="1" stop-color="white" stop-opacity="0"/>
</radialGradient>
<radialGradient id="paint1_radial_499_364" cx="0" cy="0" r="1" gradientTransform="matrix(112.201 66.124 -108.759 147.527 1.0344 2.08264)" gradientUnits="userSpaceOnUse">
<stop stop-color="white" stop-opacity="0"/>
<stop offset="1" stop-color="white"/>
</radialGradient>
<radialGradient id="paint2_radial_499_364" cx="0" cy="0" r="1" gradientTransform="matrix(111.653 -65.7769 90.0791 157.225 1.58201 67.8595)" gradientUnits="userSpaceOnUse">
<stop stop-color="white" stop-opacity="0"/>
<stop offset="1" stop-color="white"/>
</radialGradient>
<linearGradient id="paint3_linear_499_364" x1="2.12963" y1="1.90909" x2="105.021" y2="79.1384" gradientUnits="userSpaceOnUse">
<stop stop-color="white" stop-opacity="0.3"/>
<stop offset="1" stop-color="white" stop-opacity="0"/>
</linearGradient>
</defs>
</svg>
