<svg width="430" height="96" viewBox="0 0 430 96" fill="none" xmlns="http://www.w3.org/2000/svg">
<mask id="mask0_507_30" style="mask-type:alpha" maskUnits="userSpaceOnUse" x="0" y="0" width="430" height="96">
<rect width="430" height="96" fill="#D9D9D9"/>
</mask>
<g mask="url(#mask0_507_30)">
<mask id="path-2-inside-1_507_30" fill="white">
<path d="M451 25C451 36.598 441.598 46 430 46H328.552C321.492 46 314.906 49.5467 311.02 55.4399L290.5 86.5601C286.614 92.4534 280.027 96 272.968 96H157.032C149.973 96 143.386 92.4533 139.5 86.5601L118.98 55.4399C115.094 49.5466 108.508 46 101.448 46H-1.90735e-06C-11.598 46 -21 36.598 -21 25V7C-21 -4.59798 -11.598 -14 0 -14H430C441.598 -14 451 -4.59798 451 7V25Z"/>
</mask>
<path d="M451 25C451 36.598 441.598 46 430 46H328.552C321.492 46 314.906 49.5467 311.02 55.4399L290.5 86.5601C286.614 92.4534 280.027 96 272.968 96H157.032C149.973 96 143.386 92.4533 139.5 86.5601L118.98 55.4399C115.094 49.5466 108.508 46 101.448 46H-1.90735e-06C-11.598 46 -21 36.598 -21 25V7C-21 -4.59798 -11.598 -14 0 -14H430C441.598 -14 451 -4.59798 451 7V25Z" fill="url(#paint0_radial_507_30)" fill-opacity="0.2"/>
<path d="M139.5 86.5601L138.665 87.1105L139.5 86.5601ZM290.5 86.5601L289.665 86.0096L290.5 86.5601ZM311.02 55.4399L311.855 55.9904L311.02 55.4399ZM430 46V45H328.552V46V47H430V46ZM311.02 55.4399L310.185 54.8895L289.665 86.0096L290.5 86.5601L291.335 87.1105L311.855 55.9904L311.02 55.4399ZM272.968 96V95H157.032V96V97H272.968V96ZM139.5 86.5601L140.335 86.0096L119.815 54.8895L118.98 55.4399L118.145 55.9904L138.665 87.1105L139.5 86.5601ZM101.448 46V45H-1.90735e-06V46V47H101.448V46ZM-21 25H-20V7H-21H-22V25H-21ZM0 -14V-13H430V-14V-15H0V-14ZM451 7H450V25H451H452V7H451ZM430 -14V-13C441.046 -13 450 -4.0457 450 7H451H452C452 -5.15026 442.15 -15 430 -15V-14ZM-21 7H-20C-20 -4.04569 -11.0457 -13 0 -13V-14V-15C-12.1503 -15 -22 -5.15026 -22 7H-21ZM-1.90735e-06 46V45C-11.0457 45 -20 36.0457 -20 25H-21H-22C-22 37.1503 -12.1503 47 -1.90735e-06 47V46ZM118.98 55.4399L119.815 54.8895C115.744 48.7155 108.844 45 101.448 45V46V47C108.171 47 114.445 50.3778 118.145 55.9904L118.98 55.4399ZM157.032 96V95C150.309 95 144.036 91.6222 140.335 86.0096L139.5 86.5601L138.665 87.1105C142.736 93.2845 149.637 97 157.032 97V96ZM290.5 86.5601L289.665 86.0096C285.964 91.6222 279.691 95 272.968 95V96V97C280.363 97 287.264 93.2845 291.335 87.1105L290.5 86.5601ZM328.552 46V45C321.156 45 314.256 48.7155 310.185 54.8895L311.02 55.4399L311.855 55.9904C315.555 50.3778 321.829 47 328.552 47V46ZM430 46V47C442.15 47 452 37.1503 452 25H451H450C450 36.0457 441.046 45 430 45V46Z" fill="url(#paint1_radial_507_30)" fill-opacity="0.25" mask="url(#path-2-inside-1_507_30)"/>
<path d="M139.5 86.5601L138.665 87.1105L139.5 86.5601ZM290.5 86.5601L289.665 86.0096L290.5 86.5601ZM311.02 55.4399L311.855 55.9904L311.02 55.4399ZM430 46V45H328.552V46V47H430V46ZM311.02 55.4399L310.185 54.8895L289.665 86.0096L290.5 86.5601L291.335 87.1105L311.855 55.9904L311.02 55.4399ZM272.968 96V95H157.032V96V97H272.968V96ZM139.5 86.5601L140.335 86.0096L119.815 54.8895L118.98 55.4399L118.145 55.9904L138.665 87.1105L139.5 86.5601ZM101.448 46V45H-1.90735e-06V46V47H101.448V46ZM-21 25H-20V7H-21H-22V25H-21ZM0 -14V-13H430V-14V-15H0V-14ZM451 7H450V25H451H452V7H451ZM430 -14V-13C441.046 -13 450 -4.0457 450 7H451H452C452 -5.15026 442.15 -15 430 -15V-14ZM-21 7H-20C-20 -4.04569 -11.0457 -13 0 -13V-14V-15C-12.1503 -15 -22 -5.15026 -22 7H-21ZM-1.90735e-06 46V45C-11.0457 45 -20 36.0457 -20 25H-21H-22C-22 37.1503 -12.1503 47 -1.90735e-06 47V46ZM118.98 55.4399L119.815 54.8895C115.744 48.7155 108.844 45 101.448 45V46V47C108.171 47 114.445 50.3778 118.145 55.9904L118.98 55.4399ZM157.032 96V95C150.309 95 144.036 91.6222 140.335 86.0096L139.5 86.5601L138.665 87.1105C142.736 93.2845 149.637 97 157.032 97V96ZM290.5 86.5601L289.665 86.0096C285.964 91.6222 279.691 95 272.968 95V96V97C280.363 97 287.264 93.2845 291.335 87.1105L290.5 86.5601ZM328.552 46V45C321.156 45 314.256 48.7155 310.185 54.8895L311.02 55.4399L311.855 55.9904C315.555 50.3778 321.829 47 328.552 47V46ZM430 46V47C442.15 47 452 37.1503 452 25H451H450C450 36.0457 441.046 45 430 45V46Z" fill="url(#paint2_radial_507_30)" fill-opacity="0.25" mask="url(#path-2-inside-1_507_30)"/>
<path d="M139.5 86.5601L138.665 87.1105L139.5 86.5601ZM290.5 86.5601L289.665 86.0096L290.5 86.5601ZM311.02 55.4399L311.855 55.9904L311.02 55.4399ZM430 46V45H328.552V46V47H430V46ZM311.02 55.4399L310.185 54.8895L289.665 86.0096L290.5 86.5601L291.335 87.1105L311.855 55.9904L311.02 55.4399ZM272.968 96V95H157.032V96V97H272.968V96ZM139.5 86.5601L140.335 86.0096L119.815 54.8895L118.98 55.4399L118.145 55.9904L138.665 87.1105L139.5 86.5601ZM101.448 46V45H-1.90735e-06V46V47H101.448V46ZM-21 25H-20V7H-21H-22V25H-21ZM0 -14V-13H430V-14V-15H0V-14ZM451 7H450V25H451H452V7H451ZM430 -14V-13C441.046 -13 450 -4.0457 450 7H451H452C452 -5.15026 442.15 -15 430 -15V-14ZM-21 7H-20C-20 -4.04569 -11.0457 -13 0 -13V-14V-15C-12.1503 -15 -22 -5.15026 -22 7H-21ZM-1.90735e-06 46V45C-11.0457 45 -20 36.0457 -20 25H-21H-22C-22 37.1503 -12.1503 47 -1.90735e-06 47V46ZM118.98 55.4399L119.815 54.8895C115.744 48.7155 108.844 45 101.448 45V46V47C108.171 47 114.445 50.3778 118.145 55.9904L118.98 55.4399ZM157.032 96V95C150.309 95 144.036 91.6222 140.335 86.0096L139.5 86.5601L138.665 87.1105C142.736 93.2845 149.637 97 157.032 97V96ZM290.5 86.5601L289.665 86.0096C285.964 91.6222 279.691 95 272.968 95V96V97C280.363 97 287.264 93.2845 291.335 87.1105L290.5 86.5601ZM328.552 46V45C321.156 45 314.256 48.7155 310.185 54.8895L311.02 55.4399L311.855 55.9904C315.555 50.3778 321.829 47 328.552 47V46ZM430 46V47C442.15 47 452 37.1503 452 25H451H450C450 36.0457 441.046 45 430 45V46Z" fill="url(#paint3_linear_507_30)" fill-opacity="0.25" mask="url(#path-2-inside-1_507_30)"/>
</g>
<defs>
<radialGradient id="paint0_radial_507_30" cx="0" cy="0" r="1" gradientTransform="matrix(1.00614e-05 -123 157.417 0.285347 219 96)" gradientUnits="userSpaceOnUse">
<stop stop-color="white" stop-opacity="0.4"/>
<stop offset="1" stop-color="white" stop-opacity="0"/>
</radialGradient>
<radialGradient id="paint1_radial_507_30" cx="0" cy="0" r="1" gradientTransform="matrix(460.512 103.909 -446.385 231.827 -16.7545 -10.7273)" gradientUnits="userSpaceOnUse">
<stop stop-color="white" stop-opacity="0"/>
<stop offset="1" stop-color="white"/>
</radialGradient>
<radialGradient id="paint2_radial_507_30" cx="0" cy="0" r="1" gradientTransform="matrix(458.265 -103.364 369.716 247.068 -14.5069 92.6364)" gradientUnits="userSpaceOnUse">
<stop stop-color="white" stop-opacity="0"/>
<stop offset="1" stop-color="white"/>
</radialGradient>
<linearGradient id="paint3_linear_507_30" x1="-12.2593" y1="-11" x2="124.058" y2="256.24" gradientUnits="userSpaceOnUse">
<stop stop-color="white" stop-opacity="0.3"/>
<stop offset="1" stop-color="white" stop-opacity="0"/>
</linearGradient>
</defs>
</svg>
