<svg width="186" height="70" viewBox="0 0 186 70" fill="none" xmlns="http://www.w3.org/2000/svg">
<mask id="path-1-inside-1_499_371" fill="white">
<path d="M0 59.4431C0 57.5732 0.496643 55.7369 1.43912 54.1219L27.2356 9.9192C30.8203 3.77675 37.3973 0 44.5092 0H141.298C148.41 0 154.987 3.77678 158.572 9.91926L184.596 54.5127C185.516 56.0879 186 57.879 186 59.7029C186 65.3898 181.39 70 175.703 70H10.5569C4.7265 70 0 65.2735 0 59.4431Z"/>
</mask>
<path d="M0 59.4431C0 57.5732 0.496643 55.7369 1.43912 54.1219L27.2356 9.9192C30.8203 3.77675 37.3973 0 44.5092 0H141.298C148.41 0 154.987 3.77678 158.572 9.91926L184.596 54.5127C185.516 56.0879 186 57.879 186 59.7029C186 65.3898 181.39 70 175.703 70H10.5569C4.7265 70 0 65.2735 0 59.4431Z" fill="url(#paint0_radial_499_371)" fill-opacity="0.2"/>
<path d="M184.596 54.5127L185.46 54.0087L184.596 54.5127ZM1.43912 54.1219L2.3028 54.626L1.43912 54.1219ZM1.43912 54.1219L2.3028 54.626L28.0993 10.4232L27.2356 9.9192L26.3719 9.41516L0.575439 53.6179L1.43912 54.1219ZM44.5092 0V1H141.298V0V-1H44.5092V0ZM158.572 9.91926L157.708 10.4233L183.733 55.0167L184.596 54.5127L185.46 54.0087L159.436 9.41523L158.572 9.91926ZM175.703 70V69H10.5569V70V71H175.703V70ZM10.5569 70V69C5.27879 69 1 64.7212 1 59.4431H0H-1C-1 65.8258 4.17422 71 10.5569 71V70ZM186 59.7029H185C185 64.8375 180.838 69 175.703 69V70V71C181.942 71 187 65.9421 187 59.7029H186ZM184.596 54.5127L183.733 55.0167C184.563 56.439 185 58.0561 185 59.7029H186H187C187 57.7019 186.469 55.7369 185.46 54.0087L184.596 54.5127ZM141.298 0V1C148.055 1 154.303 4.58794 157.708 10.4233L158.572 9.91926L159.436 9.41523C155.672 2.96562 148.766 -1 141.298 -1V0ZM27.2356 9.9192L28.0993 10.4232C31.5048 4.58791 37.7529 1 44.5092 1V0V-1C37.0417 -1 30.1359 2.96558 26.3719 9.41516L27.2356 9.9192ZM1.43912 54.1219L0.575439 53.6179C-0.456314 55.3858 -1 57.3961 -1 59.4431H0H1C1 57.7503 1.4496 56.088 2.3028 54.626L1.43912 54.1219Z" fill="white" fill-opacity="0.4" mask="url(#path-1-inside-1_499_371)"/>
<defs>
<radialGradient id="paint0_radial_499_371" cx="0" cy="0" r="1" gradientTransform="matrix(-52.5 106 -77.926 -117.034 93 7.64808e-07)" gradientUnits="userSpaceOnUse">
<stop stop-color="white" stop-opacity="0.4"/>
<stop offset="1" stop-color="white" stop-opacity="0"/>
</radialGradient>
</defs>
</svg>
