<svg width="115" height="70" viewBox="0 0 115 70" fill="none" xmlns="http://www.w3.org/2000/svg">
<mask id="path-1-inside-1_499_381" fill="white">
<path d="M0 10.5077C0 12.4089 0.515862 14.2746 1.49261 15.9058L28.0603 60.2747C31.6727 66.3074 38.1877 70 45.2193 70H95C106.046 70 115 61.0457 115 50V20C115 8.9543 106.046 0 95 0H10.5077C4.70444 0 0 4.70444 0 10.5077Z"/>
</mask>
<path d="M0 10.5077C0 12.4089 0.515862 14.2746 1.49261 15.9058L28.0603 60.2747C31.6727 66.3074 38.1877 70 45.2193 70H95C106.046 70 115 61.0457 115 50V20C115 8.9543 106.046 0 95 0H10.5077C4.70444 0 0 4.70444 0 10.5077Z" fill="url(#paint0_radial_499_381)" fill-opacity="0.2"/>
<path d="M28.0603 60.2747L27.2024 60.7884L28.0603 60.2747ZM1.49261 15.9058L2.35056 15.3921L1.49261 15.9058ZM1.49261 15.9058L2.35056 15.3921L28.9183 59.7609L28.0603 60.2747L27.2024 60.7884L0.634666 16.4195L1.49261 15.9058ZM45.2193 70V69H95V70V71H45.2193V70ZM115 50H114V20H115H116V50H115ZM95 0V1H10.5077V0V-1H95V0ZM10.5077 0V1C5.25672 1 1 5.25672 1 10.5077H0H-1C-1 4.15215 4.15215 -1 10.5077 -1V0ZM115 20H114C114 9.50659 105.493 1 95 1V0V-1C106.598 -1 116 8.40202 116 20H115ZM95 70V69C105.493 69 114 60.4934 114 50H115H116C116 61.598 106.598 71 95 71V70ZM28.0603 60.2747L28.9183 59.7609C32.35 65.4921 38.5393 69 45.2193 69V70V71C37.8362 71 30.9954 67.1228 27.2024 60.7884L28.0603 60.2747ZM1.49261 15.9058L0.634666 16.4195C-0.435043 14.6331 -1 12.5899 -1 10.5077H0H1C1 12.228 1.46677 13.9161 2.35056 15.3921L1.49261 15.9058Z" fill="url(#paint1_radial_499_381)" fill-opacity="0.25" mask="url(#path-1-inside-1_499_381)"/>
<path d="M28.0603 60.2747L27.2024 60.7884L28.0603 60.2747ZM1.49261 15.9058L2.35056 15.3921L1.49261 15.9058ZM1.49261 15.9058L2.35056 15.3921L28.9183 59.7609L28.0603 60.2747L27.2024 60.7884L0.634666 16.4195L1.49261 15.9058ZM45.2193 70V69H95V70V71H45.2193V70ZM115 50H114V20H115H116V50H115ZM95 0V1H10.5077V0V-1H95V0ZM10.5077 0V1C5.25672 1 1 5.25672 1 10.5077H0H-1C-1 4.15215 4.15215 -1 10.5077 -1V0ZM115 20H114C114 9.50659 105.493 1 95 1V0V-1C106.598 -1 116 8.40202 116 20H115ZM95 70V69C105.493 69 114 60.4934 114 50H115H116C116 61.598 106.598 71 95 71V70ZM28.0603 60.2747L28.9183 59.7609C32.35 65.4921 38.5393 69 45.2193 69V70V71C37.8362 71 30.9954 67.1228 27.2024 60.7884L28.0603 60.2747ZM1.49261 15.9058L0.634666 16.4195C-0.435043 14.6331 -1 12.5899 -1 10.5077H0H1C1 12.228 1.46677 13.9161 2.35056 15.3921L1.49261 15.9058Z" fill="url(#paint2_radial_499_381)" fill-opacity="0.25" mask="url(#path-1-inside-1_499_381)"/>
<path d="M28.0603 60.2747L27.2024 60.7884L28.0603 60.2747ZM1.49261 15.9058L2.35056 15.3921L1.49261 15.9058ZM1.49261 15.9058L2.35056 15.3921L28.9183 59.7609L28.0603 60.2747L27.2024 60.7884L0.634666 16.4195L1.49261 15.9058ZM45.2193 70V69H95V70V71H45.2193V70ZM115 50H114V20H115H116V50H115ZM95 0V1H10.5077V0V-1H95V0ZM10.5077 0V1C5.25672 1 1 5.25672 1 10.5077H0H-1C-1 4.15215 4.15215 -1 10.5077 -1V0ZM115 20H114C114 9.50659 105.493 1 95 1V0V-1C106.598 -1 116 8.40202 116 20H115ZM95 70V69C105.493 69 114 60.4934 114 50H115H116C116 61.598 106.598 71 95 71V70ZM28.0603 60.2747L28.9183 59.7609C32.35 65.4921 38.5393 69 45.2193 69V70V71C37.8362 71 30.9954 67.1228 27.2024 60.7884L28.0603 60.2747ZM1.49261 15.9058L0.634666 16.4195C-0.435043 14.6331 -1 12.5899 -1 10.5077H0H1C1 12.228 1.46677 13.9161 2.35056 15.3921L1.49261 15.9058Z" fill="url(#paint3_linear_499_381)" fill-opacity="0.25" mask="url(#path-1-inside-1_499_381)"/>
<defs>
<radialGradient id="paint0_radial_499_381" cx="0" cy="0" r="1" gradientTransform="matrix(-112.201 66.124 108.759 147.527 113.966 2.08264)" gradientUnits="userSpaceOnUse">
<stop stop-color="white" stop-opacity="0.4"/>
<stop offset="1" stop-color="white" stop-opacity="0"/>
</radialGradient>
<radialGradient id="paint1_radial_499_381" cx="0" cy="0" r="1" gradientTransform="matrix(-112.201 66.124 108.759 147.527 113.966 2.08264)" gradientUnits="userSpaceOnUse">
<stop stop-color="white" stop-opacity="0"/>
<stop offset="1" stop-color="white"/>
</radialGradient>
<radialGradient id="paint2_radial_499_381" cx="0" cy="0" r="1" gradientTransform="matrix(-111.653 -65.7769 -90.0791 157.225 113.418 67.8595)" gradientUnits="userSpaceOnUse">
<stop stop-color="white" stop-opacity="0"/>
<stop offset="1" stop-color="white"/>
</radialGradient>
<linearGradient id="paint3_linear_499_381" x1="112.87" y1="1.90909" x2="9.97867" y2="79.1384" gradientUnits="userSpaceOnUse">
<stop stop-color="white" stop-opacity="0.3"/>
<stop offset="1" stop-color="white" stop-opacity="0"/>
</linearGradient>
</defs>
</svg>
