<svg width="342" height="135" viewBox="0 0 342 135" fill="none" xmlns="http://www.w3.org/2000/svg">
<rect x="183" y="62" width="13" height="48" rx="6.5" fill="url(#paint0_linear_514_32)"/>
<rect x="183.5" y="62.5" width="12" height="47" rx="6" stroke="url(#paint1_radial_514_32)" stroke-opacity="0.25"/>
<rect x="183.5" y="62.5" width="12" height="47" rx="6" stroke="url(#paint2_radial_514_32)" stroke-opacity="0.25"/>
<rect x="183.5" y="62.5" width="12" height="47" rx="6" stroke="url(#paint3_linear_514_32)" stroke-opacity="0.25"/>
<rect x="222.5" y="12.5" width="12" height="97" rx="6" stroke="url(#paint4_radial_514_32)" stroke-opacity="0.25"/>
<rect x="222.5" y="12.5" width="12" height="97" rx="6" stroke="url(#paint5_radial_514_32)" stroke-opacity="0.25"/>
<rect x="222.5" y="12.5" width="12" height="97" rx="6" stroke="url(#paint6_linear_514_32)" stroke-opacity="0.25"/>
<rect x="222" y="62" width="13" height="48" rx="6.5" fill="url(#paint7_linear_514_32)"/>
<rect x="222.5" y="62.5" width="12" height="47" rx="6" stroke="url(#paint8_radial_514_32)" stroke-opacity="0.25"/>
<rect x="222.5" y="62.5" width="12" height="47" rx="6" stroke="url(#paint9_radial_514_32)" stroke-opacity="0.25"/>
<rect x="222.5" y="62.5" width="12" height="47" rx="6" stroke="url(#paint10_linear_514_32)" stroke-opacity="0.25"/>
<rect x="144.5" y="30.5" width="12" height="79" rx="6" stroke="url(#paint11_radial_514_32)" stroke-opacity="0.25"/>
<rect x="144.5" y="30.5" width="12" height="79" rx="6" stroke="url(#paint12_radial_514_32)" stroke-opacity="0.25"/>
<rect x="144.5" y="30.5" width="12" height="79" rx="6" stroke="url(#paint13_linear_514_32)" stroke-opacity="0.25"/>
<rect x="144" y="62" width="13" height="48" rx="6.5" fill="url(#paint14_linear_514_32)"/>
<rect x="144.5" y="62.5" width="12" height="47" rx="6" stroke="url(#paint15_radial_514_32)" stroke-opacity="0.25"/>
<rect x="144.5" y="62.5" width="12" height="47" rx="6" stroke="url(#paint16_radial_514_32)" stroke-opacity="0.25"/>
<rect x="144.5" y="62.5" width="12" height="47" rx="6" stroke="url(#paint17_linear_514_32)" stroke-opacity="0.25"/>
<rect x="261.5" y="34.5" width="12" height="75" rx="6" stroke="url(#paint18_radial_514_32)" stroke-opacity="0.25"/>
<rect x="261.5" y="34.5" width="12" height="75" rx="6" stroke="url(#paint19_radial_514_32)" stroke-opacity="0.25"/>
<rect x="261.5" y="34.5" width="12" height="75" rx="6" stroke="url(#paint20_linear_514_32)" stroke-opacity="0.25"/>
<rect x="261" y="62" width="13" height="48" rx="6.5" fill="url(#paint21_linear_514_32)"/>
<rect x="261.5" y="62.5" width="12" height="47" rx="6" stroke="url(#paint22_radial_514_32)" stroke-opacity="0.25"/>
<rect x="261.5" y="62.5" width="12" height="47" rx="6" stroke="url(#paint23_radial_514_32)" stroke-opacity="0.25"/>
<rect x="261.5" y="62.5" width="12" height="47" rx="6" stroke="url(#paint24_linear_514_32)" stroke-opacity="0.25"/>
<rect x="300.5" y="24.5" width="12" height="85" rx="6" stroke="url(#paint25_radial_514_32)" stroke-opacity="0.25"/>
<rect x="300.5" y="24.5" width="12" height="85" rx="6" stroke="url(#paint26_radial_514_32)" stroke-opacity="0.25"/>
<rect x="300.5" y="24.5" width="12" height="85" rx="6" stroke="url(#paint27_linear_514_32)" stroke-opacity="0.25"/>
<rect x="300" y="62" width="13" height="48" rx="6.5" fill="url(#paint28_linear_514_32)"/>
<rect x="300.5" y="62.5" width="12" height="47" rx="6" stroke="url(#paint29_radial_514_32)" stroke-opacity="0.25"/>
<rect x="300.5" y="62.5" width="12" height="47" rx="6" stroke="url(#paint30_radial_514_32)" stroke-opacity="0.25"/>
<rect x="300.5" y="62.5" width="12" height="47" rx="6" stroke="url(#paint31_linear_514_32)" stroke-opacity="0.25"/>
<path d="M4.228 67.196C3.49067 67.196 2.85133 67.0607 2.31 66.79C1.76867 66.5193 1.34867 66.1367 1.05 65.642C0.760667 65.1473 0.616 64.5733 0.616 63.92V63.766H2.114V63.906C2.114 64.5033 2.296 64.984 2.66 65.348C3.03333 65.7027 3.55133 65.88 4.214 65.88C4.89533 65.88 5.42267 65.6933 5.796 65.32C6.16933 64.9467 6.356 64.4427 6.356 63.808V63.682C6.356 63.0753 6.16933 62.59 5.796 62.226C5.432 61.862 4.96533 61.68 4.396 61.68C4.07867 61.68 3.81267 61.7313 3.598 61.834C3.39267 61.9273 3.22467 62.044 3.094 62.184C2.97267 62.324 2.87 62.4593 2.786 62.59H0.924V57.2H7.49V58.53H2.394V61.414H2.618C2.71133 61.2553 2.842 61.106 3.01 60.966C3.18733 60.8167 3.416 60.6953 3.696 60.602C3.976 60.5087 4.312 60.462 4.704 60.462C5.28267 60.462 5.80533 60.588 6.272 60.84C6.748 61.0827 7.126 61.4467 7.406 61.932C7.686 62.408 7.826 62.9867 7.826 63.668V63.822C7.826 64.5033 7.68133 65.096 7.392 65.6C7.10267 66.104 6.68733 66.496 6.146 66.776C5.614 67.056 4.97467 67.196 4.228 67.196ZM12.6649 67.196C11.9089 67.196 11.2462 67.084 10.6769 66.86C10.1169 66.636 9.67819 66.314 9.36086 65.894C9.05286 65.4647 8.89886 64.9653 8.89886 64.396V64.242C8.89886 63.7753 8.98753 63.3927 9.16486 63.094C9.35153 62.786 9.57553 62.548 9.83686 62.38C10.1075 62.2027 10.3595 62.086 10.5929 62.03V61.806C10.3595 61.7407 10.1215 61.624 9.87886 61.456C9.63619 61.2787 9.43553 61.05 9.27686 60.77C9.12753 60.4807 9.05286 60.1353 9.05286 59.734V59.58C9.05286 59.0573 9.20219 58.6047 9.50086 58.222C9.80886 57.8393 10.2335 57.5407 10.7749 57.326C11.3162 57.1113 11.9462 57.004 12.6649 57.004C13.3742 57.004 13.9995 57.1113 14.5409 57.326C15.0822 57.5407 15.5022 57.8393 15.8009 58.222C16.1089 58.6047 16.2629 59.0573 16.2629 59.58V59.734C16.2629 60.1353 16.1835 60.4807 16.0249 60.77C15.8755 61.05 15.6842 61.2787 15.4509 61.456C15.2175 61.624 14.9795 61.7407 14.7369 61.806V62.03C14.9795 62.086 15.2315 62.2027 15.4929 62.38C15.7542 62.548 15.9735 62.786 16.1509 63.094C16.3282 63.3927 16.4169 63.7753 16.4169 64.242V64.396C16.4169 64.9653 16.2582 65.4647 15.9409 65.894C15.6329 66.314 15.1942 66.636 14.6249 66.86C14.0649 67.084 13.4115 67.196 12.6649 67.196ZM12.6649 65.88C13.3742 65.88 13.9295 65.7447 14.3309 65.474C14.7415 65.194 14.9469 64.8067 14.9469 64.312V64.2C14.9469 63.696 14.7462 63.3087 14.3449 63.038C13.9529 62.758 13.3929 62.618 12.6649 62.618C11.9369 62.618 11.3722 62.758 10.9709 63.038C10.5695 63.3087 10.3689 63.696 10.3689 64.2V64.312C10.3689 64.8067 10.5695 65.194 10.9709 65.474C11.3815 65.7447 11.9462 65.88 12.6649 65.88ZM12.6649 61.302C13.3275 61.302 13.8455 61.176 14.2189 60.924C14.6015 60.672 14.7929 60.3173 14.7929 59.86V59.748C14.7929 59.2907 14.6015 58.9407 14.2189 58.698C13.8362 58.446 13.3182 58.32 12.6649 58.32C12.0022 58.32 11.4795 58.446 11.0969 58.698C10.7142 58.9407 10.5229 59.2907 10.5229 59.748V59.86C10.5229 60.3173 10.7095 60.672 11.0829 60.924C11.4655 61.176 11.9929 61.302 12.6649 61.302ZM21.1395 67.196C20.4115 67.196 19.7861 67.0747 19.2635 66.832C18.7408 66.58 18.3395 66.23 18.0595 65.782C17.7795 65.3247 17.6395 64.7927 17.6395 64.186H19.1375C19.1375 64.6713 19.2961 65.0773 19.6135 65.404C19.9401 65.7213 20.4488 65.88 21.1395 65.88C21.8395 65.88 22.3761 65.6933 22.7495 65.32C23.1228 64.9467 23.3095 64.438 23.3095 63.794V62.618H23.0855C22.9268 62.842 22.6701 63.0567 22.3155 63.262C21.9608 63.4673 21.4475 63.57 20.7755 63.57C20.2061 63.57 19.6788 63.444 19.1935 63.192C18.7081 62.94 18.3161 62.5807 18.0175 62.114C17.7281 61.638 17.5835 61.0733 17.5835 60.42V60.252C17.5835 59.5987 17.7328 59.0293 18.0315 58.544C18.3395 58.0587 18.7641 57.6807 19.3055 57.41C19.8561 57.1393 20.4861 57.004 21.1955 57.004C21.9141 57.004 22.5395 57.144 23.0715 57.424C23.6128 57.6947 24.0328 58.0773 24.3315 58.572C24.6301 59.0573 24.7795 59.6313 24.7795 60.294V63.682C24.7795 64.4473 24.6255 65.0913 24.3175 65.614C24.0188 66.1367 23.5941 66.5333 23.0435 66.804C22.5021 67.0653 21.8675 67.196 21.1395 67.196ZM21.1815 62.38C21.6108 62.38 21.9841 62.296 22.3015 62.128C22.6188 61.96 22.8661 61.7313 23.0435 61.442C23.2208 61.1433 23.3095 60.7933 23.3095 60.392V60.28C23.3095 59.6733 23.1135 59.1973 22.7215 58.852C22.3388 58.4973 21.8255 58.32 21.1815 58.32C20.5375 58.32 20.0195 58.4973 19.6275 58.852C19.2448 59.1973 19.0535 59.6733 19.0535 60.28V60.392C19.0535 60.7933 19.1375 61.1433 19.3055 61.442C19.4828 61.7313 19.7301 61.96 20.0475 62.128C20.3741 62.296 20.7521 62.38 21.1815 62.38Z" fill="url(#paint32_linear_514_32)"/>
<line x1="38" y1="61.5" x2="342" y2="61.5" stroke="url(#paint33_radial_514_32)" stroke-opacity="0.25"/>
<line x1="38" y1="61.5" x2="342" y2="61.5" stroke="url(#paint34_radial_514_32)" stroke-opacity="0.25"/>
<line x1="38" y1="61.5" x2="342" y2="61.5" stroke="url(#paint35_linear_514_32)" stroke-opacity="0.25"/>
<rect x="105.5" y="42.5" width="12" height="67" rx="6" stroke="url(#paint36_radial_514_32)" stroke-opacity="0.25"/>
<rect x="105.5" y="42.5" width="12" height="67" rx="6" stroke="url(#paint37_radial_514_32)" stroke-opacity="0.25"/>
<rect x="105.5" y="42.5" width="12" height="67" rx="6" stroke="url(#paint38_linear_514_32)" stroke-opacity="0.25"/>
<rect x="105" y="62" width="13" height="48" rx="6.5" fill="url(#paint39_linear_514_32)"/>
<rect x="105.5" y="62.5" width="12" height="47" rx="6" stroke="url(#paint40_radial_514_32)" stroke-opacity="0.25"/>
<rect x="105.5" y="62.5" width="12" height="47" rx="6" stroke="url(#paint41_radial_514_32)" stroke-opacity="0.25"/>
<rect x="105.5" y="62.5" width="12" height="47" rx="6" stroke="url(#paint42_linear_514_32)" stroke-opacity="0.25"/>
<rect x="66.5" y="0.5" width="12" height="109" rx="6" stroke="url(#paint43_radial_514_32)" stroke-opacity="0.25"/>
<rect x="66.5" y="0.5" width="12" height="109" rx="6" stroke="url(#paint44_radial_514_32)" stroke-opacity="0.25"/>
<rect x="66.5" y="0.5" width="12" height="109" rx="6" stroke="url(#paint45_linear_514_32)" stroke-opacity="0.25"/>
<rect x="66" y="62" width="13" height="48" rx="6.5" fill="url(#paint46_linear_514_32)"/>
<rect x="66.5" y="62.5" width="12" height="47" rx="6" stroke="url(#paint47_radial_514_32)" stroke-opacity="0.25"/>
<rect x="66.5" y="62.5" width="12" height="47" rx="6" stroke="url(#paint48_radial_514_32)" stroke-opacity="0.25"/>
<rect x="66.5" y="62.5" width="12" height="47" rx="6" stroke="url(#paint49_linear_514_32)" stroke-opacity="0.25"/>
<path d="M66.949 131V121.9H69.588L71.577 130.064H71.785L73.774 121.9H76.413V131H75.048V122.888H74.84L72.864 131H70.498L68.522 122.888H68.314V131H66.949Z" fill="white" fill-opacity="0.8"/>
<path d="M225.949 131V121.9H231.565V123.174H227.353V125.8H231.227V127.074H227.353V131H225.949Z" fill="white" fill-opacity="0.8"/>
<path d="M110.12 131V123.174H107.325V121.9H114.319V123.174H111.524V131H110.12Z" fill="white" fill-opacity="0.8"/>
<path d="M267.043 131.182C266.358 131.182 265.752 131.061 265.223 130.818C264.694 130.575 264.278 130.22 263.975 129.752C263.68 129.275 263.533 128.699 263.533 128.023V127.698H264.924V128.023C264.924 128.664 265.115 129.145 265.496 129.466C265.886 129.787 266.402 129.947 267.043 129.947C267.693 129.947 268.183 129.813 268.512 129.544C268.841 129.267 269.006 128.911 269.006 128.478C269.006 128.192 268.928 127.958 268.772 127.776C268.616 127.594 268.395 127.451 268.109 127.347C267.823 127.234 267.481 127.13 267.082 127.035L266.601 126.918C266.02 126.779 265.513 126.61 265.08 126.411C264.655 126.203 264.326 125.93 264.092 125.592C263.858 125.254 263.741 124.821 263.741 124.292C263.741 123.755 263.871 123.295 264.131 122.914C264.4 122.533 264.768 122.238 265.236 122.03C265.704 121.822 266.254 121.718 266.887 121.718C267.52 121.718 268.083 121.826 268.577 122.043C269.08 122.26 269.474 122.58 269.76 123.005C270.046 123.43 270.189 123.963 270.189 124.604V125.072H268.798V124.604C268.798 124.214 268.716 123.898 268.551 123.655C268.395 123.412 268.174 123.235 267.888 123.122C267.602 123.009 267.268 122.953 266.887 122.953C266.332 122.953 265.899 123.07 265.587 123.304C265.284 123.529 265.132 123.846 265.132 124.253C265.132 124.53 265.197 124.76 265.327 124.942C265.466 125.115 265.665 125.258 265.925 125.371C266.185 125.484 266.51 125.583 266.9 125.67L267.381 125.787C267.97 125.917 268.49 126.086 268.941 126.294C269.392 126.493 269.747 126.766 270.007 127.113C270.267 127.46 270.397 127.906 270.397 128.452C270.397 128.998 270.258 129.475 269.981 129.882C269.712 130.289 269.327 130.61 268.824 130.844C268.321 131.069 267.728 131.182 267.043 131.182Z" fill="white" fill-opacity="0.8"/>
<path d="M145.768 131L144.429 121.9H145.833L146.925 130.051H147.133L148.537 121.9H150.994L152.398 130.051H152.606L153.685 121.9H155.089L153.75 131H151.293L149.863 122.732H149.655L148.238 131H145.768Z" fill="white" fill-opacity="0.8"/>
<path d="M306.043 131.182C305.358 131.182 304.752 131.061 304.223 130.818C303.694 130.575 303.278 130.22 302.975 129.752C302.68 129.275 302.533 128.699 302.533 128.023V127.698H303.924V128.023C303.924 128.664 304.115 129.145 304.496 129.466C304.886 129.787 305.402 129.947 306.043 129.947C306.693 129.947 307.183 129.813 307.512 129.544C307.841 129.267 308.006 128.911 308.006 128.478C308.006 128.192 307.928 127.958 307.772 127.776C307.616 127.594 307.395 127.451 307.109 127.347C306.823 127.234 306.481 127.13 306.082 127.035L305.601 126.918C305.02 126.779 304.513 126.61 304.08 126.411C303.655 126.203 303.326 125.93 303.092 125.592C302.858 125.254 302.741 124.821 302.741 124.292C302.741 123.755 302.871 123.295 303.131 122.914C303.4 122.533 303.768 122.238 304.236 122.03C304.704 121.822 305.254 121.718 305.887 121.718C306.52 121.718 307.083 121.826 307.577 122.043C308.08 122.26 308.474 122.58 308.76 123.005C309.046 123.43 309.189 123.963 309.189 124.604V125.072H307.798V124.604C307.798 124.214 307.716 123.898 307.551 123.655C307.395 123.412 307.174 123.235 306.888 123.122C306.602 123.009 306.268 122.953 305.887 122.953C305.332 122.953 304.899 123.07 304.587 123.304C304.284 123.529 304.132 123.846 304.132 124.253C304.132 124.53 304.197 124.76 304.327 124.942C304.466 125.115 304.665 125.258 304.925 125.371C305.185 125.484 305.51 125.583 305.9 125.67L306.381 125.787C306.97 125.917 307.49 126.086 307.941 126.294C308.392 126.493 308.747 126.766 309.007 127.113C309.267 127.46 309.397 127.906 309.397 128.452C309.397 128.998 309.258 129.475 308.981 129.882C308.712 130.289 308.327 130.61 307.824 130.844C307.321 131.069 306.728 131.182 306.043 131.182Z" fill="white" fill-opacity="0.8"/>
<path d="M188.12 131V123.174H185.325V121.9H192.319V123.174H189.524V131H188.12Z" fill="white" fill-opacity="0.8"/>
<defs>
<linearGradient id="paint0_linear_514_32" x1="197.101" y1="62" x2="169.114" y2="68.8315" gradientUnits="userSpaceOnUse">
<stop stop-color="#FD7F66"/>
<stop offset="1" stop-color="#F4D35E"/>
</linearGradient>
<radialGradient id="paint1_radial_514_32" cx="0" cy="0" r="1" gradientTransform="matrix(12.6836 45.3421 -12.2945 101.161 183.117 63.4281)" gradientUnits="userSpaceOnUse">
<stop stop-color="white" stop-opacity="0"/>
<stop offset="1" stop-color="white"/>
</radialGradient>
<radialGradient id="paint2_radial_514_32" cx="0" cy="0" r="1" gradientTransform="matrix(12.6217 -45.1041 10.1829 107.812 183.179 108.532)" gradientUnits="userSpaceOnUse">
<stop stop-color="white" stop-opacity="0"/>
<stop offset="1" stop-color="white"/>
</radialGradient>
<linearGradient id="paint3_linear_514_32" x1="183.241" y1="63.3091" x2="201.151" y2="65.5252" gradientUnits="userSpaceOnUse">
<stop stop-color="white" stop-opacity="0.3"/>
<stop offset="1" stop-color="white" stop-opacity="0"/>
</linearGradient>
<radialGradient id="paint4_radial_514_32" cx="0" cy="0" r="1" gradientTransform="matrix(12.6836 92.5736 -12.2945 206.537 222.117 14.9157)" gradientUnits="userSpaceOnUse">
<stop stop-color="white" stop-opacity="0"/>
<stop offset="1" stop-color="white"/>
</radialGradient>
<radialGradient id="paint5_radial_514_32" cx="0" cy="0" r="1" gradientTransform="matrix(12.6217 -92.0876 10.1829 220.115 222.179 107.003)" gradientUnits="userSpaceOnUse">
<stop stop-color="white" stop-opacity="0"/>
<stop offset="1" stop-color="white"/>
</radialGradient>
<linearGradient id="paint6_linear_514_32" x1="222.241" y1="14.6727" x2="240.358" y2="15.7708" gradientUnits="userSpaceOnUse">
<stop stop-color="white" stop-opacity="0.3"/>
<stop offset="1" stop-color="white" stop-opacity="0"/>
</linearGradient>
<linearGradient id="paint7_linear_514_32" x1="236.101" y1="62" x2="208.114" y2="68.8315" gradientUnits="userSpaceOnUse">
<stop stop-color="#FD7F66"/>
<stop offset="1" stop-color="#F4D35E"/>
</linearGradient>
<radialGradient id="paint8_radial_514_32" cx="0" cy="0" r="1" gradientTransform="matrix(12.6836 45.3421 -12.2945 101.161 222.117 63.4281)" gradientUnits="userSpaceOnUse">
<stop stop-color="white" stop-opacity="0"/>
<stop offset="1" stop-color="white"/>
</radialGradient>
<radialGradient id="paint9_radial_514_32" cx="0" cy="0" r="1" gradientTransform="matrix(12.6217 -45.1041 10.1829 107.812 222.179 108.532)" gradientUnits="userSpaceOnUse">
<stop stop-color="white" stop-opacity="0"/>
<stop offset="1" stop-color="white"/>
</radialGradient>
<linearGradient id="paint10_linear_514_32" x1="222.241" y1="63.3091" x2="240.151" y2="65.5252" gradientUnits="userSpaceOnUse">
<stop stop-color="white" stop-opacity="0.3"/>
<stop offset="1" stop-color="white" stop-opacity="0"/>
</linearGradient>
<radialGradient id="paint11_radial_514_32" cx="0" cy="0" r="1" gradientTransform="matrix(12.6836 75.5702 -12.2945 168.602 144.117 32.3802)" gradientUnits="userSpaceOnUse">
<stop stop-color="white" stop-opacity="0"/>
<stop offset="1" stop-color="white"/>
</radialGradient>
<radialGradient id="paint12_radial_514_32" cx="0" cy="0" r="1" gradientTransform="matrix(12.6217 -75.1736 10.1829 179.686 144.179 107.554)" gradientUnits="userSpaceOnUse">
<stop stop-color="white" stop-opacity="0"/>
<stop offset="1" stop-color="white"/>
</radialGradient>
<linearGradient id="paint13_linear_514_32" x1="144.241" y1="32.1818" x2="162.325" y2="33.5245" gradientUnits="userSpaceOnUse">
<stop stop-color="white" stop-opacity="0.3"/>
<stop offset="1" stop-color="white" stop-opacity="0"/>
</linearGradient>
<linearGradient id="paint14_linear_514_32" x1="158.101" y1="62" x2="130.114" y2="68.8315" gradientUnits="userSpaceOnUse">
<stop stop-color="#FD7F66"/>
<stop offset="1" stop-color="#F4D35E"/>
</linearGradient>
<radialGradient id="paint15_radial_514_32" cx="0" cy="0" r="1" gradientTransform="matrix(12.6836 45.3421 -12.2945 101.161 144.117 63.4281)" gradientUnits="userSpaceOnUse">
<stop stop-color="white" stop-opacity="0"/>
<stop offset="1" stop-color="white"/>
</radialGradient>
<radialGradient id="paint16_radial_514_32" cx="0" cy="0" r="1" gradientTransform="matrix(12.6217 -45.1041 10.1829 107.812 144.179 108.532)" gradientUnits="userSpaceOnUse">
<stop stop-color="white" stop-opacity="0"/>
<stop offset="1" stop-color="white"/>
</radialGradient>
<linearGradient id="paint17_linear_514_32" x1="144.241" y1="63.3091" x2="162.151" y2="65.5252" gradientUnits="userSpaceOnUse">
<stop stop-color="white" stop-opacity="0.3"/>
<stop offset="1" stop-color="white" stop-opacity="0"/>
</linearGradient>
<radialGradient id="paint18_radial_514_32" cx="0" cy="0" r="1" gradientTransform="matrix(12.6836 71.7917 -12.2945 160.172 261.117 36.2612)" gradientUnits="userSpaceOnUse">
<stop stop-color="white" stop-opacity="0"/>
<stop offset="1" stop-color="white"/>
</radialGradient>
<radialGradient id="paint19_radial_514_32" cx="0" cy="0" r="1" gradientTransform="matrix(12.6217 -71.4149 10.1829 170.702 261.179 107.676)" gradientUnits="userSpaceOnUse">
<stop stop-color="white" stop-opacity="0"/>
<stop offset="1" stop-color="white"/>
</radialGradient>
<linearGradient id="paint20_linear_514_32" x1="261.241" y1="36.0727" x2="279.314" y2="37.4852" gradientUnits="userSpaceOnUse">
<stop stop-color="white" stop-opacity="0.3"/>
<stop offset="1" stop-color="white" stop-opacity="0"/>
</linearGradient>
<linearGradient id="paint21_linear_514_32" x1="275.101" y1="62" x2="247.114" y2="68.8315" gradientUnits="userSpaceOnUse">
<stop stop-color="#FD7F66"/>
<stop offset="1" stop-color="#F4D35E"/>
</linearGradient>
<radialGradient id="paint22_radial_514_32" cx="0" cy="0" r="1" gradientTransform="matrix(12.6836 45.3421 -12.2945 101.161 261.117 63.4281)" gradientUnits="userSpaceOnUse">
<stop stop-color="white" stop-opacity="0"/>
<stop offset="1" stop-color="white"/>
</radialGradient>
<radialGradient id="paint23_radial_514_32" cx="0" cy="0" r="1" gradientTransform="matrix(12.6217 -45.1041 10.1829 107.812 261.179 108.532)" gradientUnits="userSpaceOnUse">
<stop stop-color="white" stop-opacity="0"/>
<stop offset="1" stop-color="white"/>
</radialGradient>
<linearGradient id="paint24_linear_514_32" x1="261.241" y1="63.3091" x2="279.151" y2="65.5252" gradientUnits="userSpaceOnUse">
<stop stop-color="white" stop-opacity="0.3"/>
<stop offset="1" stop-color="white" stop-opacity="0"/>
</linearGradient>
<radialGradient id="paint25_radial_514_32" cx="0" cy="0" r="1" gradientTransform="matrix(12.6836 81.238 -12.2945 181.247 300.117 26.5587)" gradientUnits="userSpaceOnUse">
<stop stop-color="white" stop-opacity="0"/>
<stop offset="1" stop-color="white"/>
</radialGradient>
<radialGradient id="paint26_radial_514_32" cx="0" cy="0" r="1" gradientTransform="matrix(12.6217 -80.8116 10.1829 193.162 300.179 107.37)" gradientUnits="userSpaceOnUse">
<stop stop-color="white" stop-opacity="0"/>
<stop offset="1" stop-color="white"/>
</radialGradient>
<linearGradient id="paint27_linear_514_32" x1="300.241" y1="26.3455" x2="318.338" y2="27.5953" gradientUnits="userSpaceOnUse">
<stop stop-color="white" stop-opacity="0.3"/>
<stop offset="1" stop-color="white" stop-opacity="0"/>
</linearGradient>
<linearGradient id="paint28_linear_514_32" x1="314.101" y1="62" x2="286.114" y2="68.8315" gradientUnits="userSpaceOnUse">
<stop stop-color="#FD7F66"/>
<stop offset="1" stop-color="#F4D35E"/>
</linearGradient>
<radialGradient id="paint29_radial_514_32" cx="0" cy="0" r="1" gradientTransform="matrix(12.6836 45.3421 -12.2945 101.161 300.117 63.4281)" gradientUnits="userSpaceOnUse">
<stop stop-color="white" stop-opacity="0"/>
<stop offset="1" stop-color="white"/>
</radialGradient>
<radialGradient id="paint30_radial_514_32" cx="0" cy="0" r="1" gradientTransform="matrix(12.6217 -45.1041 10.1829 107.812 300.179 108.532)" gradientUnits="userSpaceOnUse">
<stop stop-color="white" stop-opacity="0"/>
<stop offset="1" stop-color="white"/>
</radialGradient>
<linearGradient id="paint31_linear_514_32" x1="300.241" y1="63.3091" x2="318.151" y2="65.5252" gradientUnits="userSpaceOnUse">
<stop stop-color="white" stop-opacity="0.3"/>
<stop offset="1" stop-color="white" stop-opacity="0"/>
</linearGradient>
<linearGradient id="paint32_linear_514_32" x1="28.202" y1="53" x2="6.19359" y2="81.6517" gradientUnits="userSpaceOnUse">
<stop stop-color="#FD7F66"/>
<stop offset="1" stop-color="#F4D35E"/>
</linearGradient>
<radialGradient id="paint33_radial_514_32" cx="0" cy="0" r="1" gradientTransform="matrix(296.601 0.944628 -287.503 2.10752 40.7344 62.0298)" gradientUnits="userSpaceOnUse">
<stop stop-color="white" stop-opacity="0"/>
<stop offset="1" stop-color="white"/>
</radialGradient>
<radialGradient id="paint34_radial_514_32" cx="0" cy="0" r="1" gradientTransform="matrix(295.153 -0.939669 238.122 2.24607 42.182 62.9694)" gradientUnits="userSpaceOnUse">
<stop stop-color="white" stop-opacity="0"/>
<stop offset="1" stop-color="white"/>
</radialGradient>
<linearGradient id="paint35_linear_514_32" x1="43.6296" y1="62.0273" x2="43.6517" y2="65.0887" gradientUnits="userSpaceOnUse">
<stop stop-color="white" stop-opacity="0.3"/>
<stop offset="1" stop-color="white" stop-opacity="0"/>
</linearGradient>
<radialGradient id="paint36_radial_514_32" cx="0" cy="0" r="1" gradientTransform="matrix(12.6836 64.2347 -12.2945 143.312 105.117 44.0231)" gradientUnits="userSpaceOnUse">
<stop stop-color="white" stop-opacity="0"/>
<stop offset="1" stop-color="white"/>
</radialGradient>
<radialGradient id="paint37_radial_514_32" cx="0" cy="0" r="1" gradientTransform="matrix(12.6217 -63.8975 10.1829 152.733 105.179 107.921)" gradientUnits="userSpaceOnUse">
<stop stop-color="white" stop-opacity="0"/>
<stop offset="1" stop-color="white"/>
</radialGradient>
<linearGradient id="paint38_linear_514_32" x1="105.241" y1="43.8545" x2="123.287" y2="45.4308" gradientUnits="userSpaceOnUse">
<stop stop-color="white" stop-opacity="0.3"/>
<stop offset="1" stop-color="white" stop-opacity="0"/>
</linearGradient>
<linearGradient id="paint39_linear_514_32" x1="119.101" y1="62" x2="91.1141" y2="68.8315" gradientUnits="userSpaceOnUse">
<stop stop-color="#FD7F66"/>
<stop offset="1" stop-color="#F4D35E"/>
</linearGradient>
<radialGradient id="paint40_radial_514_32" cx="0" cy="0" r="1" gradientTransform="matrix(12.6836 45.3421 -12.2945 101.161 105.117 63.4281)" gradientUnits="userSpaceOnUse">
<stop stop-color="white" stop-opacity="0"/>
<stop offset="1" stop-color="white"/>
</radialGradient>
<radialGradient id="paint41_radial_514_32" cx="0" cy="0" r="1" gradientTransform="matrix(12.6217 -45.1041 10.1829 107.812 105.179 108.532)" gradientUnits="userSpaceOnUse">
<stop stop-color="white" stop-opacity="0"/>
<stop offset="1" stop-color="white"/>
</radialGradient>
<linearGradient id="paint42_linear_514_32" x1="105.241" y1="63.3091" x2="123.151" y2="65.5252" gradientUnits="userSpaceOnUse">
<stop stop-color="white" stop-opacity="0.3"/>
<stop offset="1" stop-color="white" stop-opacity="0"/>
</linearGradient>
<radialGradient id="paint43_radial_514_32" cx="0" cy="0" r="1" gradientTransform="matrix(12.6836 103.909 -12.2945 231.827 66.1169 3.27272)" gradientUnits="userSpaceOnUse">
<stop stop-color="white" stop-opacity="0"/>
<stop offset="1" stop-color="white"/>
</radialGradient>
<radialGradient id="paint44_radial_514_32" cx="0" cy="0" r="1" gradientTransform="matrix(12.6217 -103.364 10.1829 247.068 66.1788 106.636)" gradientUnits="userSpaceOnUse">
<stop stop-color="white" stop-opacity="0"/>
<stop offset="1" stop-color="white"/>
</radialGradient>
<linearGradient id="paint45_linear_514_32" x1="66.2407" y1="3" x2="84.372" y2="3.97899" gradientUnits="userSpaceOnUse">
<stop stop-color="white" stop-opacity="0.3"/>
<stop offset="1" stop-color="white" stop-opacity="0"/>
</linearGradient>
<linearGradient id="paint46_linear_514_32" x1="80.101" y1="62" x2="52.1141" y2="68.8315" gradientUnits="userSpaceOnUse">
<stop stop-color="#FD7F66"/>
<stop offset="1" stop-color="#F4D35E"/>
</linearGradient>
<radialGradient id="paint47_radial_514_32" cx="0" cy="0" r="1" gradientTransform="matrix(12.6836 45.3421 -12.2945 101.161 66.1169 63.4281)" gradientUnits="userSpaceOnUse">
<stop stop-color="white" stop-opacity="0"/>
<stop offset="1" stop-color="white"/>
</radialGradient>
<radialGradient id="paint48_radial_514_32" cx="0" cy="0" r="1" gradientTransform="matrix(12.6217 -45.1041 10.1829 107.812 66.1788 108.532)" gradientUnits="userSpaceOnUse">
<stop stop-color="white" stop-opacity="0"/>
<stop offset="1" stop-color="white"/>
</radialGradient>
<linearGradient id="paint49_linear_514_32" x1="66.2407" y1="63.3091" x2="84.1506" y2="65.5252" gradientUnits="userSpaceOnUse">
<stop stop-color="white" stop-opacity="0.3"/>
<stop offset="1" stop-color="white" stop-opacity="0"/>
</linearGradient>
</defs>
</svg>
