<svg width="26" height="26" viewBox="0 0 26 26" fill="none" xmlns="http://www.w3.org/2000/svg">
<path d="M20.1427 15.77L25.2227 11.4013C26.0773 10.6673 25.6227 9.26662 24.4993 9.17462L17.822 8.62729C17.5902 8.60846 17.368 8.52614 17.1798 8.38938C16.9917 8.25261 16.8448 8.06667 16.7553 7.85196L14.1707 1.67062C13.736 0.630625 12.264 0.630625 11.8293 1.67062L9.24467 7.85196C9.15521 8.06667 9.00835 8.25261 8.82019 8.38938C8.63204 8.52614 8.40985 8.60846 8.17801 8.62729L1.50001 9.17462C0.377339 9.26662 -0.0773279 10.6673 0.776672 11.4013L3.86201 14.0546C4.14648 14.2997 4.4784 14.4836 4.83707 14.5947C5.19573 14.7059 5.57346 14.7419 5.94667 14.7006L12.8547 13.944C13.4227 13.882 13.658 14.6506 13.1527 14.9173L6.95201 18.1906C6.60591 18.3729 6.30296 18.6273 6.06362 18.9367C5.82429 19.246 5.65414 19.6032 5.56467 19.984L4.72201 23.544C4.46267 24.64 5.65401 25.506 6.61601 24.9206L12.3407 21.4386C12.7453 21.192 13.254 21.192 13.6593 21.4386L19.3833 24.9206C20.346 25.506 21.5367 24.6406 21.278 23.544L19.7353 17.024C19.6816 16.7977 19.6911 16.561 19.763 16.3398C19.8348 16.1186 19.9662 15.9214 20.1427 15.77Z" fill="url(#paint0_linear_499_386)"/>
<defs>
<linearGradient id="paint0_linear_499_386" x1="27.812" y1="0.890624" x2="-2.78295" y2="29.7345" gradientUnits="userSpaceOnUse">
<stop stop-color="#FD7F66"/>
<stop offset="1" stop-color="#F4D35E"/>
</linearGradient>
</defs>
</svg>
